<svg xmlns="http://www.w3.org/2000/svg" xmlns:xlink="http://www.w3.org/1999/xlink" width="1120" zoomAndPan="magnify" viewBox="0 0 840 839.999992" height="1120" preserveAspectRatio="xMidYMid meet" version="1.0"><defs><clipPath id="fb051264eb"><path d="M 140 138 L 703.601562 138 L 703.601562 702 L 140 702 Z M 140 138 " clip-rule="nonzero"/></clipPath></defs><g clip-path="url(#fb051264eb)"><path fill="#d6c5ab" d="M 140.355469 335.542969 L 140.355469 185.398438 C 140.355469 183.863281 140.433594 182.328125 140.585938 180.800781 C 140.738281 179.273438 140.964844 177.753906 141.265625 176.25 C 141.566406 174.742188 141.941406 173.253906 142.386719 171.785156 C 142.835938 170.316406 143.351562 168.871094 143.941406 167.453125 C 144.53125 166.03125 145.1875 164.644531 145.910156 163.292969 C 146.636719 161.9375 147.425781 160.621094 148.28125 159.34375 C 149.132812 158.066406 150.046875 156.835938 151.023438 155.648438 C 151.996094 154.460938 153.027344 153.324219 154.113281 152.238281 C 155.199219 151.152344 156.335938 150.121094 157.523438 149.144531 C 158.710938 148.171875 159.945312 147.257812 161.222656 146.402344 C 162.496094 145.550781 163.8125 144.761719 165.167969 144.035156 C 166.523438 143.308594 167.910156 142.652344 169.328125 142.066406 C 170.746094 141.476562 172.191406 140.957031 173.660156 140.511719 C 175.132812 140.066406 176.617188 139.691406 178.125 139.390625 C 179.632812 139.089844 181.148438 138.863281 182.679688 138.710938 C 184.207031 138.558594 185.738281 138.480469 187.273438 138.480469 L 412.488281 138.480469 C 414.027344 138.480469 415.558594 138.558594 417.085938 138.710938 C 418.613281 138.863281 420.132812 139.089844 421.640625 139.390625 C 423.144531 139.691406 424.632812 140.066406 426.101562 140.511719 C 427.574219 140.957031 429.015625 141.476562 430.4375 142.066406 C 431.855469 142.652344 433.242188 143.308594 434.597656 144.035156 C 435.949219 144.761719 437.265625 145.550781 438.542969 146.402344 C 439.820312 147.257812 441.050781 148.171875 442.238281 149.144531 C 443.425781 150.121094 444.5625 151.152344 445.648438 152.238281 C 446.738281 153.324219 447.765625 154.460938 448.742188 155.648438 C 449.714844 156.835938 450.628906 158.066406 451.484375 159.34375 C 452.339844 160.621094 453.128906 161.9375 453.851562 163.292969 C 454.578125 164.644531 455.234375 166.03125 455.824219 167.453125 C 456.410156 168.871094 456.929688 170.316406 457.375 171.785156 C 457.824219 173.253906 458.199219 174.742188 458.5 176.25 C 458.800781 177.753906 459.027344 179.273438 459.179688 180.800781 C 459.332031 182.328125 459.40625 183.863281 459.410156 185.398438 L 459.410156 194.78125 C 459.410156 195.398438 459.347656 196.007812 459.230469 196.613281 C 459.109375 197.21875 458.929688 197.804688 458.695312 198.375 C 458.457031 198.941406 458.167969 199.484375 457.828125 199.996094 C 457.484375 200.507812 457.097656 200.980469 456.660156 201.417969 C 456.226562 201.851562 455.75 202.242188 455.238281 202.585938 C 454.726562 202.925781 454.183594 203.214844 453.617188 203.453125 C 453.046875 203.6875 452.460938 203.867188 451.855469 203.984375 C 451.25 204.105469 450.640625 204.167969 450.023438 204.167969 C 449.410156 204.167969 448.796875 204.105469 448.195312 203.984375 C 447.589844 203.867188 447.003906 203.6875 446.433594 203.453125 C 445.863281 203.214844 445.324219 202.925781 444.8125 202.585938 C 444.300781 202.242188 443.824219 201.851562 443.390625 201.417969 C 442.953125 200.980469 442.566406 200.507812 442.222656 199.996094 C 441.878906 199.484375 441.589844 198.941406 441.355469 198.375 C 441.121094 197.804688 440.941406 197.21875 440.820312 196.613281 C 440.699219 196.007812 440.640625 195.398438 440.640625 194.78125 L 440.640625 185.398438 C 440.640625 184.476562 440.59375 183.558594 440.503906 182.640625 C 440.410156 181.722656 440.277344 180.8125 440.09375 179.910156 C 439.914062 179.003906 439.691406 178.113281 439.421875 177.230469 C 439.152344 176.347656 438.84375 175.480469 438.488281 174.628906 C 438.136719 173.777344 437.742188 172.945312 437.308594 172.132812 C 436.875 171.320312 436.398438 170.53125 435.886719 169.765625 C 435.375 169 434.828125 168.261719 434.242188 167.546875 C 433.65625 166.835938 433.039062 166.152344 432.386719 165.5 C 431.734375 164.847656 431.054688 164.230469 430.339844 163.644531 C 429.628906 163.0625 428.886719 162.511719 428.121094 162 C 427.355469 161.488281 426.566406 161.015625 425.753906 160.578125 C 424.941406 160.144531 424.109375 159.75 423.257812 159.398438 C 422.40625 159.042969 421.539062 158.734375 420.65625 158.464844 C 419.777344 158.199219 418.882812 157.972656 417.980469 157.792969 C 417.074219 157.613281 416.164062 157.476562 415.246094 157.386719 C 414.332031 157.292969 413.410156 157.246094 412.488281 157.246094 L 187.273438 157.246094 C 186.351562 157.246094 185.433594 157.292969 184.515625 157.386719 C 183.597656 157.476562 182.6875 157.613281 181.785156 157.792969 C 180.882812 157.972656 179.988281 158.199219 179.105469 158.464844 C 178.226562 158.734375 177.359375 159.042969 176.507812 159.398438 C 175.65625 159.75 174.824219 160.144531 174.011719 160.578125 C 173.199219 161.015625 172.410156 161.488281 171.640625 162 C 170.875 162.511719 170.136719 163.0625 169.425781 163.644531 C 168.710938 164.230469 168.03125 164.847656 167.378906 165.5 C 166.726562 166.152344 166.109375 166.835938 165.523438 167.546875 C 164.9375 168.261719 164.390625 169 163.878906 169.765625 C 163.363281 170.53125 162.890625 171.320312 162.457031 172.132812 C 162.023438 172.945312 161.628906 173.777344 161.273438 174.628906 C 160.921875 175.480469 160.609375 176.347656 160.34375 177.230469 C 160.074219 178.113281 159.851562 179.003906 159.667969 179.910156 C 159.488281 180.8125 159.351562 181.722656 159.261719 182.640625 C 159.171875 183.558594 159.125 184.476562 159.125 185.398438 L 159.125 335.542969 C 159.125 336.460938 159.171875 337.382812 159.261719 338.300781 C 159.351562 339.214844 159.488281 340.128906 159.667969 341.03125 C 159.851562 341.933594 160.074219 342.828125 160.34375 343.710938 C 160.609375 344.589844 160.921875 345.457031 161.273438 346.308594 C 161.628906 347.160156 162.023438 347.992188 162.457031 348.804688 C 162.890625 349.617188 163.363281 350.40625 163.878906 351.175781 C 164.390625 351.941406 164.9375 352.679688 165.523438 353.390625 C 166.109375 354.105469 166.726562 354.785156 167.378906 355.4375 C 168.03125 356.089844 168.710938 356.707031 169.425781 357.292969 C 170.136719 357.878906 170.875 358.425781 171.640625 358.9375 C 172.410156 359.453125 173.199219 359.925781 174.011719 360.359375 C 174.824219 360.792969 175.65625 361.1875 176.507812 361.542969 C 177.359375 361.894531 178.226562 362.207031 179.105469 362.472656 C 179.988281 362.742188 180.882812 362.964844 181.785156 363.148438 C 182.6875 363.328125 183.597656 363.464844 184.515625 363.554688 C 185.433594 363.644531 186.351562 363.691406 187.273438 363.691406 L 215.425781 363.691406 C 216.671875 363.691406 217.867188 363.929688 219.019531 364.40625 C 220.167969 364.882812 221.183594 365.5625 222.0625 366.441406 L 274.480469 418.859375 C 275.054688 419.351562 275.71875 419.65625 276.46875 419.773438 C 277.214844 419.890625 277.9375 419.804688 278.636719 419.515625 C 279.339844 419.226562 279.910156 418.773438 280.355469 418.160156 C 280.800781 417.550781 281.054688 416.867188 281.113281 416.109375 L 281.113281 373.078125 C 281.113281 372.460938 281.171875 371.851562 281.292969 371.246094 C 281.414062 370.640625 281.589844 370.054688 281.828125 369.484375 C 282.0625 368.914062 282.351562 368.375 282.695312 367.863281 C 283.035156 367.351562 283.425781 366.875 283.859375 366.441406 C 284.296875 366.003906 284.769531 365.613281 285.285156 365.273438 C 285.796875 364.929688 286.335938 364.640625 286.90625 364.40625 C 287.476562 364.171875 288.0625 363.992188 288.667969 363.871094 C 289.273438 363.753906 289.882812 363.691406 290.5 363.691406 L 356.1875 363.691406 C 356.800781 363.691406 357.414062 363.753906 358.015625 363.875 C 358.621094 363.992188 359.207031 364.171875 359.777344 364.40625 C 360.347656 364.644531 360.886719 364.933594 361.398438 365.273438 C 361.910156 365.617188 362.386719 366.003906 362.820312 366.441406 C 363.257812 366.878906 363.644531 367.351562 363.988281 367.863281 C 364.332031 368.375 364.621094 368.917969 364.855469 369.484375 C 365.089844 370.054688 365.269531 370.640625 365.390625 371.246094 C 365.507812 371.851562 365.570312 372.460938 365.570312 373.078125 C 365.570312 373.691406 365.507812 374.304688 365.390625 374.90625 C 365.269531 375.511719 365.089844 376.097656 364.855469 376.667969 C 364.621094 377.238281 364.332031 377.777344 363.988281 378.289062 C 363.644531 378.800781 363.257812 379.277344 362.820312 379.710938 C 362.386719 380.148438 361.910156 380.535156 361.398438 380.878906 C 360.886719 381.222656 360.347656 381.511719 359.777344 381.746094 C 359.207031 381.980469 358.621094 382.160156 358.015625 382.28125 C 357.414062 382.402344 356.800781 382.460938 356.1875 382.460938 L 299.882812 382.460938 L 299.882812 416.109375 C 299.882812 417.226562 299.800781 418.332031 299.636719 419.433594 C 299.472656 420.535156 299.230469 421.621094 298.90625 422.6875 C 298.582031 423.753906 298.183594 424.789062 297.707031 425.796875 C 297.230469 426.804688 296.683594 427.769531 296.0625 428.695312 C 295.445312 429.621094 294.761719 430.5 294.011719 431.324219 C 293.265625 432.148438 292.460938 432.914062 291.601562 433.621094 C 290.738281 434.328125 289.832031 434.96875 288.875 435.542969 C 287.917969 436.113281 286.925781 436.613281 285.898438 437.039062 C 284.867188 437.464844 283.8125 437.816406 282.734375 438.085938 C 281.652344 438.355469 280.558594 438.546875 279.449219 438.65625 C 278.339844 438.765625 277.230469 438.792969 276.117188 438.738281 C 275.003906 438.683594 273.902344 438.546875 272.808594 438.328125 C 271.714844 438.113281 270.644531 437.816406 269.597656 437.441406 C 268.546875 437.066406 267.53125 436.613281 266.550781 436.089844 C 265.566406 435.5625 264.628906 434.96875 263.734375 434.304688 C 262.839844 433.644531 261.996094 432.917969 261.210938 432.128906 L 211.542969 382.460938 L 187.273438 382.460938 C 185.738281 382.460938 184.207031 382.382812 182.679688 382.230469 C 181.148438 382.078125 179.632812 381.851562 178.125 381.550781 C 176.617188 381.25 175.132812 380.875 173.660156 380.429688 C 172.191406 379.980469 170.746094 379.464844 169.328125 378.875 C 167.910156 378.285156 166.523438 377.628906 165.167969 376.90625 C 163.8125 376.179688 162.496094 375.390625 161.222656 374.535156 C 159.945312 373.683594 158.710938 372.769531 157.523438 371.792969 C 156.335938 370.820312 155.199219 369.789062 154.113281 368.703125 C 153.027344 367.617188 151.996094 366.480469 151.023438 365.292969 C 150.046875 364.105469 149.132812 362.871094 148.28125 361.59375 C 147.425781 360.316406 146.636719 359.003906 145.910156 357.648438 C 145.1875 356.292969 144.53125 354.90625 143.941406 353.488281 C 143.351562 352.070312 142.835938 350.625 142.386719 349.15625 C 141.941406 347.683594 141.566406 346.199219 141.265625 344.691406 C 140.964844 343.183594 140.738281 341.667969 140.585938 340.136719 C 140.433594 338.609375 140.355469 337.078125 140.355469 335.542969 Z M 703.390625 269.855469 L 703.390625 419.996094 C 703.390625 421.53125 703.3125 423.066406 703.160156 424.59375 C 703.007812 426.121094 702.78125 427.640625 702.480469 429.144531 C 702.179688 430.652344 701.804688 432.140625 701.359375 433.609375 C 700.910156 435.082031 700.394531 436.523438 699.804688 437.941406 C 699.214844 439.363281 698.558594 440.75 697.835938 442.101562 C 697.109375 443.457031 696.320312 444.773438 695.464844 446.050781 C 694.613281 447.328125 693.699219 448.558594 692.722656 449.746094 C 691.75 450.933594 690.71875 452.070312 689.632812 453.15625 C 688.546875 454.242188 687.410156 455.273438 686.222656 456.25 C 685.035156 457.222656 683.800781 458.136719 682.527344 458.992188 C 681.25 459.84375 679.933594 460.636719 678.578125 461.359375 C 677.222656 462.085938 675.835938 462.742188 674.417969 463.328125 C 673 463.917969 671.554688 464.4375 670.085938 464.882812 C 668.617188 465.332031 667.128906 465.703125 665.621094 466.003906 C 664.113281 466.304688 662.597656 466.53125 661.070312 466.683594 C 659.539062 466.835938 658.007812 466.914062 656.472656 466.917969 L 575.902344 466.917969 L 526.230469 516.585938 C 525.445312 517.371094 524.601562 518.097656 523.707031 518.761719 C 522.8125 519.425781 521.875 520.019531 520.894531 520.546875 C 519.910156 521.070312 518.894531 521.519531 517.84375 521.894531 C 516.796875 522.269531 515.726562 522.566406 514.632812 522.785156 C 513.539062 523 512.4375 523.136719 511.324219 523.191406 C 510.210938 523.246094 509.101562 523.21875 507.992188 523.109375 C 506.886719 523 505.789062 522.8125 504.710938 522.539062 C 503.628906 522.269531 502.574219 521.921875 501.546875 521.496094 C 500.515625 521.070312 499.523438 520.570312 498.566406 519.996094 C 497.613281 519.425781 496.703125 518.785156 495.84375 518.078125 C 494.980469 517.371094 494.175781 516.605469 493.429688 515.777344 C 492.679688 514.953125 491.996094 514.078125 491.378906 513.152344 C 490.757812 512.226562 490.210938 511.257812 489.734375 510.25 C 489.257812 509.246094 488.859375 508.207031 488.535156 507.140625 C 488.210938 506.074219 487.96875 504.992188 487.804688 503.890625 C 487.640625 502.789062 487.5625 501.679688 487.5625 500.566406 L 487.5625 466.917969 L 431.257812 466.917969 C 429.722656 466.914062 428.1875 466.835938 426.660156 466.683594 C 425.132812 466.53125 423.613281 466.304688 422.109375 466.003906 C 420.601562 465.703125 419.113281 465.332031 417.644531 464.882812 C 416.171875 464.4375 414.730469 463.917969 413.308594 463.328125 C 411.890625 462.742188 410.503906 462.085938 409.148438 461.359375 C 407.796875 460.636719 406.480469 459.84375 405.203125 458.992188 C 403.925781 458.136719 402.695312 457.222656 401.507812 456.25 C 400.320312 455.273438 399.183594 454.242188 398.097656 453.15625 C 397.011719 452.070312 395.980469 450.933594 395.003906 449.746094 C 394.03125 448.558594 393.117188 447.328125 392.261719 446.050781 C 391.40625 444.773438 390.617188 443.457031 389.894531 442.101562 C 389.167969 440.75 388.511719 439.363281 387.925781 437.941406 C 387.335938 436.523438 386.816406 435.082031 386.371094 433.609375 C 385.921875 432.140625 385.550781 430.652344 385.25 429.144531 C 384.945312 427.640625 384.71875 426.121094 384.570312 424.59375 C 384.417969 423.066406 384.339844 421.53125 384.335938 419.996094 L 384.335938 269.855469 C 384.339844 268.316406 384.417969 266.785156 384.570312 265.257812 C 384.71875 263.726562 384.945312 262.210938 385.25 260.703125 C 385.550781 259.199219 385.921875 257.710938 386.371094 256.238281 C 386.816406 254.769531 387.335938 253.324219 387.921875 251.90625 C 388.511719 250.488281 389.167969 249.101562 389.894531 247.746094 C 390.617188 246.390625 391.40625 245.078125 392.261719 243.800781 C 393.117188 242.523438 394.03125 241.289062 395.003906 240.101562 C 395.980469 238.914062 397.011719 237.777344 398.097656 236.691406 C 399.183594 235.605469 400.320312 234.574219 401.507812 233.601562 C 402.695312 232.625 403.925781 231.710938 405.203125 230.859375 C 406.480469 230.003906 407.796875 229.214844 409.148438 228.492188 C 410.503906 227.765625 411.890625 227.109375 413.308594 226.519531 C 414.730469 225.933594 416.171875 225.414062 417.644531 224.964844 C 419.113281 224.519531 420.601562 224.144531 422.109375 223.84375 C 423.613281 223.542969 425.132812 223.316406 426.660156 223.164062 C 428.1875 223.011719 429.722656 222.9375 431.257812 222.933594 L 656.472656 222.933594 C 658.007812 222.9375 659.539062 223.011719 661.070312 223.164062 C 662.597656 223.316406 664.113281 223.542969 665.621094 223.84375 C 667.128906 224.144531 668.617188 224.519531 670.085938 224.964844 C 671.554688 225.414062 673 225.933594 674.417969 226.519531 C 675.835938 227.109375 677.222656 227.765625 678.578125 228.492188 C 679.933594 229.214844 681.25 230.003906 682.527344 230.859375 C 683.800781 231.710938 685.035156 232.625 686.222656 233.601562 C 687.410156 234.574219 688.546875 235.605469 689.632812 236.691406 C 690.71875 237.777344 691.75 238.914062 692.722656 240.101562 C 693.699219 241.289062 694.613281 242.523438 695.464844 243.800781 C 696.320312 245.078125 697.109375 246.390625 697.835938 247.746094 C 698.558594 249.101562 699.214844 250.488281 699.804688 251.90625 C 700.394531 253.324219 700.910156 254.769531 701.359375 256.238281 C 701.804688 257.710938 702.179688 259.199219 702.480469 260.703125 C 702.78125 262.210938 703.007812 263.726562 703.160156 265.257812 C 703.3125 266.785156 703.390625 268.316406 703.390625 269.855469 Z M 684.625 269.855469 C 684.621094 268.933594 684.574219 268.011719 684.484375 267.09375 C 684.394531 266.179688 684.257812 265.265625 684.078125 264.363281 C 683.898438 263.460938 683.671875 262.566406 683.402344 261.683594 C 683.136719 260.804688 682.824219 259.9375 682.472656 259.085938 C 682.117188 258.234375 681.726562 257.402344 681.289062 256.589844 C 680.855469 255.777344 680.382812 254.988281 679.871094 254.21875 C 679.355469 253.453125 678.808594 252.714844 678.222656 252.003906 C 677.640625 251.289062 677.019531 250.609375 676.367188 249.957031 C 675.71875 249.304688 675.035156 248.6875 674.324219 248.101562 C 673.609375 247.515625 672.871094 246.96875 672.105469 246.457031 C 671.339844 245.945312 670.546875 245.46875 669.734375 245.035156 C 668.921875 244.601562 668.089844 244.207031 667.238281 243.851562 C 666.386719 243.5 665.523438 243.1875 664.640625 242.921875 C 663.757812 242.652344 662.863281 242.429688 661.960938 242.246094 C 661.058594 242.066406 660.148438 241.929688 659.230469 241.839844 C 658.3125 241.75 657.394531 241.703125 656.472656 241.703125 L 431.257812 241.703125 C 430.335938 241.703125 429.414062 241.75 428.5 241.839844 C 427.582031 241.929688 426.671875 242.066406 425.765625 242.246094 C 424.863281 242.429688 423.96875 242.652344 423.089844 242.921875 C 422.207031 243.1875 421.339844 243.5 420.488281 243.851562 C 419.636719 244.207031 418.804688 244.601562 417.992188 245.035156 C 417.179688 245.46875 416.390625 245.945312 415.625 246.457031 C 414.859375 246.96875 414.117188 247.515625 413.40625 248.101562 C 412.695312 248.6875 412.011719 249.304688 411.359375 249.957031 C 410.707031 250.609375 410.089844 251.289062 409.503906 252.003906 C 408.921875 252.714844 408.371094 253.453125 407.859375 254.21875 C 407.347656 254.988281 406.875 255.777344 406.4375 256.589844 C 406.003906 257.402344 405.609375 258.234375 405.257812 259.085938 C 404.902344 259.9375 404.59375 260.804688 404.324219 261.683594 C 404.054688 262.566406 403.832031 263.460938 403.652344 264.363281 C 403.472656 265.265625 403.335938 266.179688 403.242188 267.09375 C 403.152344 268.011719 403.105469 268.933594 403.105469 269.855469 L 403.105469 419.996094 C 403.105469 420.917969 403.152344 421.835938 403.242188 422.753906 C 403.335938 423.671875 403.472656 424.582031 403.652344 425.488281 C 403.832031 426.390625 404.054688 427.28125 404.324219 428.164062 C 404.59375 429.046875 404.902344 429.914062 405.257812 430.765625 C 405.609375 431.617188 406.003906 432.449219 406.4375 433.261719 C 406.875 434.074219 407.347656 434.863281 407.859375 435.628906 C 408.371094 436.394531 408.921875 437.136719 409.503906 437.847656 C 410.089844 438.558594 410.707031 439.242188 411.359375 439.894531 C 412.011719 440.546875 412.695312 441.164062 413.40625 441.75 C 414.117188 442.332031 414.859375 442.882812 415.625 443.394531 C 416.390625 443.90625 417.179688 444.378906 417.992188 444.816406 C 418.804688 445.25 419.636719 445.644531 420.488281 445.996094 C 421.339844 446.351562 422.207031 446.660156 423.089844 446.929688 C 423.96875 447.199219 424.863281 447.421875 425.765625 447.601562 C 426.671875 447.78125 427.582031 447.917969 428.5 448.011719 C 429.414062 448.101562 430.335938 448.148438 431.257812 448.148438 L 496.945312 448.148438 C 497.5625 448.148438 498.171875 448.207031 498.777344 448.328125 C 499.378906 448.449219 499.96875 448.625 500.535156 448.859375 C 501.105469 449.097656 501.648438 449.386719 502.160156 449.726562 C 502.671875 450.070312 503.144531 450.460938 503.582031 450.894531 C 504.015625 451.332031 504.40625 451.804688 504.75 452.316406 C 505.089844 452.828125 505.378906 453.371094 505.617188 453.941406 C 505.851562 454.507812 506.027344 455.097656 506.148438 455.699219 C 506.269531 456.304688 506.328125 456.914062 506.328125 457.53125 L 506.328125 500.566406 C 506.390625 501.320312 506.644531 502.003906 507.089844 502.617188 C 507.535156 503.226562 508.105469 503.679688 508.804688 503.96875 C 509.503906 504.257812 510.226562 504.34375 510.976562 504.226562 C 511.722656 504.109375 512.386719 503.804688 512.964844 503.316406 L 565.382812 450.898438 C 566.261719 450.015625 567.277344 449.339844 568.425781 448.863281 C 569.574219 448.386719 570.773438 448.148438 572.015625 448.148438 L 656.472656 448.148438 C 657.394531 448.148438 658.3125 448.101562 659.230469 448.011719 C 660.148438 447.917969 661.058594 447.78125 661.960938 447.601562 C 662.863281 447.421875 663.757812 447.199219 664.640625 446.929688 C 665.523438 446.660156 666.386719 446.351562 667.238281 445.996094 C 668.089844 445.644531 668.921875 445.25 669.734375 444.816406 C 670.546875 444.378906 671.339844 443.90625 672.105469 443.394531 C 672.871094 442.882812 673.609375 442.332031 674.324219 441.75 C 675.035156 441.164062 675.71875 440.546875 676.367188 439.894531 C 677.019531 439.242188 677.636719 438.558594 678.222656 437.847656 C 678.808594 437.136719 679.355469 436.394531 679.871094 435.628906 C 680.382812 434.863281 680.855469 434.074219 681.289062 433.261719 C 681.726562 432.449219 682.117188 431.617188 682.472656 430.765625 C 682.824219 429.914062 683.136719 429.046875 683.402344 428.164062 C 683.671875 427.28125 683.894531 426.390625 684.078125 425.488281 C 684.257812 424.582031 684.394531 423.671875 684.484375 422.753906 C 684.574219 421.835938 684.621094 420.917969 684.625 419.996094 Z M 333.773438 241.703125 L 323.050781 279.238281 L 346.800781 279.238281 C 347.417969 279.238281 348.027344 279.296875 348.632812 279.417969 C 349.238281 279.539062 349.824219 279.714844 350.394531 279.953125 C 350.960938 280.1875 351.503906 280.476562 352.015625 280.820312 C 352.527344 281.160156 353 281.550781 353.4375 281.984375 C 353.871094 282.421875 354.261719 282.894531 354.605469 283.40625 C 354.945312 283.921875 355.234375 284.460938 355.472656 285.03125 C 355.707031 285.601562 355.886719 286.1875 356.003906 286.789062 C 356.125 287.394531 356.1875 288.003906 356.1875 288.621094 C 356.1875 289.238281 356.125 289.847656 356.003906 290.453125 C 355.886719 291.054688 355.707031 291.644531 355.472656 292.210938 C 355.234375 292.78125 354.945312 293.324219 354.605469 293.835938 C 354.261719 294.347656 353.871094 294.820312 353.4375 295.257812 C 353 295.691406 352.527344 296.082031 352.015625 296.425781 C 351.503906 296.765625 350.960938 297.054688 350.394531 297.292969 C 349.824219 297.527344 349.238281 297.703125 348.632812 297.824219 C 348.027344 297.945312 347.417969 298.003906 346.800781 298.003906 L 317.6875 298.003906 L 308.910156 328.730469 C 308.628906 329.710938 308.199219 330.621094 307.625 331.460938 C 307.046875 332.300781 306.351562 333.03125 305.539062 333.644531 C 304.726562 334.257812 303.835938 334.726562 302.871094 335.050781 C 301.902344 335.375 300.910156 335.539062 299.890625 335.542969 C 299.015625 335.539062 298.152344 335.421875 297.308594 335.183594 C 296.714844 335.015625 296.144531 334.789062 295.597656 334.507812 C 295.050781 334.226562 294.535156 333.890625 294.050781 333.507812 C 293.570312 333.125 293.128906 332.699219 292.730469 332.230469 C 292.332031 331.761719 291.980469 331.257812 291.683594 330.71875 C 291.382812 330.179688 291.136719 329.617188 290.949219 329.03125 C 290.761719 328.441406 290.632812 327.84375 290.558594 327.230469 C 290.488281 326.621094 290.480469 326.007812 290.527344 325.390625 C 290.578125 324.777344 290.6875 324.175781 290.855469 323.582031 L 298.164062 298.003906 L 261.382812 298.003906 L 252.605469 328.730469 C 252.324219 329.710938 251.894531 330.621094 251.320312 331.460938 C 250.742188 332.300781 250.046875 333.03125 249.234375 333.644531 C 248.421875 334.257812 247.53125 334.726562 246.566406 335.050781 C 245.601562 335.375 244.605469 335.539062 243.589844 335.542969 C 242.710938 335.539062 241.847656 335.421875 241.003906 335.183594 C 240.410156 335.015625 239.839844 334.789062 239.292969 334.507812 C 238.746094 334.226562 238.230469 333.890625 237.746094 333.507812 C 237.265625 333.125 236.824219 332.699219 236.425781 332.230469 C 236.027344 331.761719 235.679688 331.257812 235.378906 330.71875 C 235.078125 330.179688 234.835938 329.617188 234.644531 329.03125 C 234.457031 328.441406 234.328125 327.84375 234.257812 327.230469 C 234.1875 326.621094 234.175781 326.007812 234.226562 325.390625 C 234.273438 324.777344 234.382812 324.175781 234.550781 323.582031 L 241.859375 298.003906 L 215.425781 298.003906 C 214.8125 298.003906 214.199219 297.945312 213.597656 297.824219 C 212.992188 297.703125 212.40625 297.527344 211.835938 297.292969 C 211.265625 297.054688 210.726562 296.765625 210.214844 296.425781 C 209.699219 296.082031 209.226562 295.691406 208.792969 295.257812 C 208.355469 294.820312 207.964844 294.347656 207.625 293.835938 C 207.28125 293.324219 206.992188 292.78125 206.757812 292.210938 C 206.519531 291.644531 206.34375 291.054688 206.222656 290.453125 C 206.101562 289.847656 206.042969 289.238281 206.042969 288.621094 C 206.042969 288.003906 206.101562 287.394531 206.222656 286.789062 C 206.34375 286.1875 206.519531 285.601562 206.757812 285.03125 C 206.992188 284.460938 207.28125 283.921875 207.625 283.40625 C 207.964844 282.894531 208.355469 282.421875 208.792969 281.984375 C 209.226562 281.550781 209.699219 281.160156 210.214844 280.820312 C 210.726562 280.476562 211.265625 280.1875 211.835938 279.953125 C 212.40625 279.714844 212.992188 279.539062 213.597656 279.417969 C 214.199219 279.296875 214.8125 279.238281 215.425781 279.238281 L 247.222656 279.238281 L 257.945312 241.703125 L 234.195312 241.703125 C 233.578125 241.703125 232.96875 241.640625 232.363281 241.523438 C 231.757812 241.402344 231.171875 241.222656 230.605469 240.988281 C 230.035156 240.75 229.492188 240.460938 228.980469 240.121094 C 228.46875 239.777344 227.996094 239.390625 227.558594 238.953125 C 227.125 238.519531 226.734375 238.042969 226.390625 237.53125 C 226.050781 237.019531 225.761719 236.476562 225.523438 235.910156 C 225.289062 235.339844 225.109375 234.753906 224.992188 234.148438 C 224.871094 233.542969 224.8125 232.933594 224.8125 232.316406 C 224.8125 231.703125 224.871094 231.089844 224.992188 230.488281 C 225.109375 229.882812 225.289062 229.296875 225.523438 228.726562 C 225.761719 228.15625 226.050781 227.617188 226.390625 227.105469 C 226.734375 226.59375 227.125 226.117188 227.558594 225.683594 C 227.996094 225.246094 228.46875 224.859375 228.980469 224.515625 C 229.492188 224.171875 230.035156 223.882812 230.605469 223.648438 C 231.171875 223.414062 231.757812 223.234375 232.363281 223.113281 C 232.96875 222.996094 233.578125 222.933594 234.195312 222.933594 L 263.308594 222.933594 L 272.085938 192.207031 C 272.257812 191.617188 272.484375 191.046875 272.765625 190.5 C 273.050781 189.953125 273.382812 189.441406 273.765625 188.960938 C 274.148438 188.476562 274.574219 188.039062 275.046875 187.640625 C 275.515625 187.246094 276.019531 186.898438 276.558594 186.597656 C 277.09375 186.300781 277.65625 186.058594 278.242188 185.871094 C 278.828125 185.683594 279.425781 185.554688 280.039062 185.484375 C 280.648438 185.414062 281.261719 185.402344 281.875 185.453125 C 282.488281 185.503906 283.089844 185.613281 283.683594 185.78125 C 284.273438 185.953125 284.84375 186.175781 285.390625 186.457031 C 285.9375 186.738281 286.453125 187.070312 286.933594 187.449219 C 287.417969 187.832031 287.855469 188.257812 288.253906 188.726562 C 288.65625 189.195312 289.003906 189.699219 289.304688 190.234375 C 289.601562 190.773438 289.847656 191.332031 290.039062 191.917969 C 290.226562 192.503906 290.355469 193.101562 290.429688 193.714844 C 290.5 194.324219 290.511719 194.9375 290.464844 195.550781 C 290.414062 196.164062 290.308594 196.765625 290.140625 197.355469 L 282.832031 222.933594 L 319.613281 222.933594 L 328.390625 192.207031 C 328.5625 191.617188 328.789062 191.046875 329.070312 190.5 C 329.351562 189.953125 329.6875 189.441406 330.070312 188.960938 C 330.453125 188.476562 330.878906 188.039062 331.347656 187.640625 C 331.820312 187.246094 332.324219 186.898438 332.859375 186.597656 C 333.398438 186.300781 333.960938 186.058594 334.546875 185.871094 C 335.132812 185.683594 335.730469 185.554688 336.34375 185.484375 C 336.953125 185.414062 337.566406 185.402344 338.179688 185.453125 C 338.792969 185.503906 339.394531 185.613281 339.984375 185.78125 C 340.578125 185.953125 341.144531 186.175781 341.695312 186.457031 C 342.242188 186.738281 342.753906 187.070312 343.238281 187.449219 C 343.71875 187.832031 344.160156 188.257812 344.558594 188.726562 C 344.957031 189.195312 345.308594 189.699219 345.605469 190.234375 C 345.90625 190.773438 346.152344 191.332031 346.339844 191.917969 C 346.53125 192.503906 346.660156 193.101562 346.734375 193.714844 C 346.804688 194.324219 346.816406 194.9375 346.769531 195.550781 C 346.71875 196.164062 346.613281 196.765625 346.445312 197.355469 L 339.136719 222.933594 L 365.570312 222.933594 C 366.1875 222.933594 366.796875 222.996094 367.398438 223.113281 C 368.003906 223.234375 368.589844 223.414062 369.160156 223.648438 C 369.730469 223.882812 370.269531 224.171875 370.78125 224.515625 C 371.296875 224.859375 371.769531 225.246094 372.207031 225.683594 C 372.640625 226.117188 373.03125 226.59375 373.371094 227.105469 C 373.714844 227.617188 374.003906 228.15625 374.238281 228.726562 C 374.476562 229.296875 374.652344 229.882812 374.773438 230.488281 C 374.894531 231.089844 374.953125 231.703125 374.953125 232.316406 C 374.953125 232.933594 374.894531 233.542969 374.773438 234.148438 C 374.652344 234.753906 374.476562 235.339844 374.238281 235.910156 C 374.003906 236.476562 373.714844 237.019531 373.371094 237.53125 C 373.03125 238.042969 372.640625 238.519531 372.207031 238.953125 C 371.769531 239.390625 371.296875 239.777344 370.78125 240.121094 C 370.269531 240.460938 369.730469 240.75 369.160156 240.988281 C 368.589844 241.222656 368.003906 241.402344 367.398438 241.523438 C 366.796875 241.640625 366.1875 241.703125 365.570312 241.703125 Z M 314.25 241.703125 L 277.472656 241.703125 L 266.746094 279.238281 L 303.527344 279.238281 Z M 628.320312 344.925781 L 628.320312 401.230469 C 628.320312 402.148438 628.273438 403.070312 628.179688 403.988281 C 628.089844 404.902344 627.953125 405.816406 627.773438 406.71875 C 627.59375 407.621094 627.367188 408.515625 627.101562 409.398438 C 626.832031 410.277344 626.523438 411.144531 626.167969 411.996094 C 625.816406 412.847656 625.421875 413.679688 624.988281 414.492188 C 624.550781 415.304688 624.078125 416.09375 623.566406 416.863281 C 623.054688 417.628906 622.503906 418.367188 621.921875 419.078125 C 621.335938 419.792969 620.71875 420.472656 620.066406 421.125 C 619.414062 421.777344 618.730469 422.394531 618.019531 422.980469 C 617.304688 423.566406 616.566406 424.113281 615.800781 424.625 C 615.035156 425.140625 614.246094 425.613281 613.433594 426.046875 C 612.621094 426.480469 611.789062 426.875 610.9375 427.230469 C 610.085938 427.582031 609.21875 427.894531 608.335938 428.160156 C 607.453125 428.429688 606.5625 428.652344 605.65625 428.835938 C 604.753906 429.015625 603.84375 429.152344 602.925781 429.242188 C 602.007812 429.332031 601.089844 429.378906 600.167969 429.378906 L 553.25 429.378906 C 546.332031 429.320312 539.542969 428.355469 532.882812 426.488281 C 526.222656 424.621094 519.925781 421.914062 513.984375 418.367188 C 513.617188 419.183594 513.191406 419.96875 512.707031 420.722656 C 512.226562 421.476562 511.695312 422.191406 511.109375 422.867188 C 510.527344 423.546875 509.894531 424.179688 509.222656 424.765625 C 508.546875 425.355469 507.832031 425.890625 507.082031 426.375 C 506.332031 426.863281 505.546875 427.292969 504.734375 427.664062 C 503.921875 428.039062 503.085938 428.351562 502.230469 428.605469 C 501.371094 428.863281 500.5 429.054688 499.613281 429.183594 C 498.730469 429.3125 497.839844 429.378906 496.945312 429.378906 L 478.175781 429.378906 C 477.5625 429.378906 476.949219 429.347656 476.339844 429.289062 C 475.726562 429.226562 475.121094 429.136719 474.515625 429.015625 C 473.914062 428.894531 473.320312 428.746094 472.730469 428.566406 C 472.144531 428.386719 471.566406 428.179688 471 427.945312 C 470.429688 427.710938 469.875 427.445312 469.335938 427.15625 C 468.792969 426.867188 468.265625 426.550781 467.753906 426.210938 C 467.246094 425.867188 466.753906 425.503906 466.277344 425.113281 C 465.800781 424.722656 465.347656 424.3125 464.914062 423.875 C 464.480469 423.441406 464.066406 422.988281 463.675781 422.511719 C 463.285156 422.039062 462.921875 421.542969 462.578125 421.035156 C 462.238281 420.523438 461.921875 419.996094 461.632812 419.453125 C 461.34375 418.914062 461.078125 418.359375 460.84375 417.789062 C 460.609375 417.222656 460.402344 416.644531 460.222656 416.058594 C 460.042969 415.46875 459.894531 414.875 459.773438 414.273438 C 459.652344 413.667969 459.5625 413.0625 459.5 412.453125 C 459.441406 411.839844 459.410156 411.226562 459.410156 410.613281 L 459.410156 326.15625 C 459.410156 325.542969 459.441406 324.929688 459.5 324.320312 C 459.5625 323.707031 459.652344 323.101562 459.773438 322.496094 C 459.894531 321.894531 460.042969 321.300781 460.222656 320.710938 C 460.402344 320.125 460.609375 319.546875 460.84375 318.980469 C 461.078125 318.410156 461.34375 317.855469 461.632812 317.316406 C 461.921875 316.773438 462.238281 316.246094 462.578125 315.734375 C 462.921875 315.226562 463.285156 314.734375 463.675781 314.257812 C 464.066406 313.78125 464.480469 313.328125 464.914062 312.894531 C 465.347656 312.460938 465.800781 312.046875 466.277344 311.65625 C 466.753906 311.265625 467.246094 310.902344 467.753906 310.558594 C 468.265625 310.21875 468.792969 309.902344 469.335938 309.613281 C 469.875 309.324219 470.429688 309.058594 471 308.824219 C 471.566406 308.589844 472.144531 308.382812 472.730469 308.203125 C 473.320312 308.023438 473.914062 307.875 474.515625 307.753906 C 475.121094 307.632812 475.726562 307.542969 476.339844 307.480469 C 476.949219 307.421875 477.5625 307.390625 478.175781 307.390625 L 496.945312 307.390625 C 498.023438 307.390625 499.09375 307.484375 500.152344 307.671875 C 501.214844 307.855469 502.253906 308.132812 503.269531 308.496094 C 504.28125 308.863281 505.257812 309.308594 506.195312 309.84375 C 507.132812 310.375 508.019531 310.984375 508.851562 311.667969 C 509.683594 312.351562 510.449219 313.105469 511.152344 313.921875 C 511.855469 314.738281 512.484375 315.609375 513.039062 316.535156 C 513.59375 317.460938 514.0625 318.425781 514.449219 319.429688 C 514.835938 320.4375 515.136719 321.46875 515.34375 322.527344 C 517.585938 320.988281 519.640625 319.230469 521.511719 317.257812 C 523.390625 315.398438 525.089844 313.386719 526.605469 311.222656 C 528.125 309.058594 529.4375 306.773438 530.546875 304.375 C 531.65625 301.976562 532.542969 299.496094 533.207031 296.9375 C 533.867188 294.378906 534.300781 291.78125 534.5 289.144531 C 534.375 287.292969 534.4375 285.445312 534.6875 283.605469 C 534.9375 281.765625 535.371094 279.972656 535.988281 278.21875 C 536.601562 276.46875 537.386719 274.796875 538.339844 273.203125 C 539.296875 271.613281 540.402344 270.132812 541.65625 268.761719 C 543.015625 267.375 544.507812 266.144531 546.125 265.070312 C 547.742188 263.996094 549.457031 263.105469 551.261719 262.390625 C 553.070312 261.675781 554.929688 261.15625 556.847656 260.832031 C 558.761719 260.507812 560.691406 260.386719 562.632812 260.46875 C 564.671875 260.523438 566.667969 260.832031 568.625 261.398438 C 570.585938 261.964844 572.4375 262.773438 574.1875 263.816406 C 575.9375 264.863281 577.527344 266.109375 578.957031 267.566406 C 580.386719 269.019531 581.605469 270.632812 582.617188 272.402344 C 584.402344 275.789062 585.820312 279.324219 586.867188 283.007812 C 587.914062 286.691406 588.566406 290.445312 588.832031 294.265625 C 589.09375 298.085938 588.960938 301.890625 588.429688 305.683594 C 587.898438 309.476562 586.980469 313.171875 585.679688 316.773438 L 600.167969 316.773438 C 601.089844 316.773438 602.007812 316.820312 602.925781 316.910156 C 603.84375 317.003906 604.753906 317.140625 605.65625 317.320312 C 606.5625 317.5 607.453125 317.722656 608.335938 317.992188 C 609.21875 318.261719 610.085938 318.570312 610.9375 318.925781 C 611.789062 319.277344 612.621094 319.671875 613.433594 320.105469 C 614.246094 320.542969 615.035156 321.015625 615.800781 321.527344 C 616.566406 322.039062 617.304688 322.589844 618.019531 323.171875 C 618.730469 323.757812 619.414062 324.375 620.066406 325.027344 C 620.71875 325.679688 621.335938 326.363281 621.921875 327.074219 C 622.503906 327.785156 623.054688 328.527344 623.566406 329.292969 C 624.078125 330.058594 624.550781 330.847656 624.988281 331.660156 C 625.421875 332.472656 625.816406 333.304688 626.167969 334.15625 C 626.523438 335.007812 626.832031 335.875 627.101562 336.757812 C 627.367188 337.636719 627.59375 338.53125 627.773438 339.433594 C 627.953125 340.339844 628.089844 341.25 628.179688 342.167969 C 628.273438 343.082031 628.320312 344.003906 628.320312 344.925781 Z M 496.964844 410.613281 L 496.945312 326.15625 L 478.175781 326.15625 L 478.175781 410.613281 Z M 609.550781 344.925781 C 609.550781 344.308594 609.492188 343.699219 609.371094 343.09375 C 609.25 342.492188 609.070312 341.902344 608.835938 341.335938 C 608.601562 340.765625 608.3125 340.226562 607.96875 339.714844 C 607.625 339.199219 607.238281 338.726562 606.800781 338.292969 C 606.367188 337.855469 605.890625 337.46875 605.378906 337.125 C 604.867188 336.78125 604.328125 336.492188 603.757812 336.257812 C 603.1875 336.019531 602.601562 335.84375 602 335.722656 C 601.394531 335.601562 600.785156 335.542969 600.167969 335.542969 L 572.015625 335.542969 C 571.621094 335.542969 571.226562 335.515625 570.835938 335.46875 C 570.445312 335.417969 570.054688 335.34375 569.671875 335.246094 C 569.289062 335.144531 568.917969 335.023438 568.550781 334.878906 C 568.183594 334.730469 567.824219 334.5625 567.480469 334.371094 C 567.132812 334.179688 566.800781 333.96875 566.480469 333.738281 C 566.164062 333.503906 565.859375 333.25 565.574219 332.980469 C 565.285156 332.707031 565.015625 332.421875 564.765625 332.117188 C 564.515625 331.808594 564.285156 331.492188 564.074219 331.15625 C 563.863281 330.820312 563.675781 330.476562 563.507812 330.117188 C 563.339844 329.757812 563.199219 329.390625 563.078125 329.015625 C 562.957031 328.636719 562.859375 328.257812 562.789062 327.867188 C 562.71875 327.480469 562.671875 327.085938 562.648438 326.691406 C 562.625 326.296875 562.628906 325.90625 562.65625 325.511719 C 562.683594 325.117188 562.734375 324.726562 562.8125 324.335938 C 562.886719 323.949219 562.988281 323.570312 563.113281 323.195312 C 563.238281 322.820312 563.386719 322.453125 563.558594 322.097656 C 571.96875 304.558594 571.21875 289.519531 566.726562 282.398438 C 565.984375 281.21875 564.464844 279.238281 562.632812 279.238281 C 561.292969 279.117188 559.988281 279.269531 558.710938 279.691406 C 557.433594 280.113281 556.296875 280.773438 555.292969 281.667969 C 554.53125 282.558594 553.972656 283.558594 553.613281 284.675781 C 553.257812 285.792969 553.128906 286.933594 553.230469 288.097656 C 553.136719 292.019531 552.667969 295.894531 551.832031 299.726562 C 550.996094 303.554688 549.804688 307.273438 548.253906 310.875 C 546.707031 314.476562 544.828125 317.898438 542.625 321.140625 C 540.421875 324.382812 537.929688 327.386719 535.148438 330.152344 C 532.492188 333.082031 529.519531 335.648438 526.230469 337.84375 C 522.941406 340.042969 519.4375 341.808594 515.710938 343.140625 L 515.710938 396.925781 C 518.363281 399.054688 521.167969 400.949219 524.125 402.617188 C 527.085938 404.285156 530.160156 405.699219 533.351562 406.863281 C 536.542969 408.027344 539.808594 408.921875 543.148438 409.550781 C 546.484375 410.179688 549.851562 410.535156 553.25 410.613281 L 600.167969 410.613281 C 600.785156 410.613281 601.394531 410.550781 602 410.429688 C 602.601562 410.3125 603.1875 410.132812 603.757812 409.898438 C 604.328125 409.660156 604.867188 409.371094 605.378906 409.027344 C 605.890625 408.6875 606.367188 408.296875 606.800781 407.863281 C 607.238281 407.425781 607.625 406.953125 607.96875 406.441406 C 608.3125 405.929688 608.601562 405.386719 608.835938 404.820312 C 609.070312 404.25 609.25 403.664062 609.371094 403.058594 C 609.492188 402.453125 609.550781 401.84375 609.550781 401.230469 Z M 403.105469 551.371094 C 403.105469 552.601562 403.042969 553.828125 402.921875 555.050781 C 402.800781 556.273438 402.617188 557.488281 402.378906 558.691406 C 402.136719 559.898438 401.839844 561.085938 401.480469 562.261719 C 401.125 563.4375 400.710938 564.59375 400.238281 565.730469 C 399.765625 566.863281 399.242188 567.972656 398.664062 569.058594 C 398.082031 570.140625 397.449219 571.195312 396.769531 572.214844 C 396.085938 573.238281 395.351562 574.222656 394.574219 575.171875 C 393.792969 576.125 392.96875 577.03125 392.101562 577.902344 C 391.230469 578.769531 390.320312 579.59375 389.371094 580.375 C 388.421875 581.15625 387.4375 581.886719 386.414062 582.570312 C 385.394531 583.253906 384.339844 583.882812 383.257812 584.464844 C 382.171875 585.042969 381.0625 585.570312 379.929688 586.039062 C 378.792969 586.511719 377.636719 586.925781 376.460938 587.28125 C 375.285156 587.640625 374.09375 587.9375 372.890625 588.179688 C 371.683594 588.421875 370.46875 588.601562 369.246094 588.722656 C 368.023438 588.84375 366.796875 588.90625 365.570312 588.90625 L 365.570312 654.59375 C 365.570312 655.105469 365.527344 655.609375 365.445312 656.113281 C 365.363281 656.617188 365.242188 657.109375 365.078125 657.59375 C 364.914062 658.074219 364.714844 658.542969 364.476562 658.992188 C 364.238281 659.441406 363.964844 659.871094 363.65625 660.277344 C 363.347656 660.679688 363.007812 661.058594 362.636719 661.410156 C 362.265625 661.761719 361.871094 662.078125 361.449219 662.363281 C 361.027344 662.648438 360.585938 662.898438 360.121094 663.113281 C 359.660156 663.328125 359.183594 663.503906 358.691406 663.636719 C 358.199219 663.773438 357.703125 663.871094 357.195312 663.925781 C 356.6875 663.980469 356.179688 663.992188 355.671875 663.964844 C 355.164062 663.9375 354.660156 663.867188 354.160156 663.757812 C 353.664062 663.648438 353.179688 663.5 352.707031 663.308594 C 352.230469 663.121094 351.777344 662.894531 351.339844 662.632812 C 350.902344 662.367188 350.492188 662.070312 350.105469 661.742188 C 349.714844 661.410156 349.355469 661.050781 349.027344 660.664062 C 348.699219 660.273438 348.402344 659.859375 348.140625 659.425781 C 347.148438 657.816406 323.085938 620.511719 252.960938 617.367188 L 252.960938 668.671875 C 252.960938 669.746094 252.910156 670.820312 252.804688 671.890625 C 252.699219 672.960938 252.542969 674.023438 252.332031 675.078125 C 252.121094 676.132812 251.859375 677.175781 251.546875 678.203125 C 251.234375 679.234375 250.875 680.246094 250.460938 681.238281 C 250.050781 682.234375 249.589844 683.203125 249.085938 684.152344 C 248.578125 685.101562 248.023438 686.023438 247.425781 686.917969 C 246.828125 687.8125 246.191406 688.675781 245.507812 689.507812 C 244.824219 690.335938 244.101562 691.132812 243.34375 691.894531 C 242.582031 692.65625 241.785156 693.375 240.953125 694.058594 C 240.125 694.742188 239.261719 695.382812 238.367188 695.980469 C 237.472656 696.578125 236.550781 697.128906 235.601562 697.636719 C 234.652344 698.144531 233.679688 698.601562 232.6875 699.015625 C 231.695312 699.425781 230.683594 699.789062 229.652344 700.101562 C 228.625 700.414062 227.582031 700.671875 226.527344 700.882812 C 225.472656 701.09375 224.410156 701.25 223.339844 701.355469 C 222.269531 701.460938 221.195312 701.515625 220.117188 701.515625 C 219.042969 701.515625 217.96875 701.460938 216.898438 701.355469 C 215.828125 701.25 214.765625 701.09375 213.710938 700.882812 C 212.65625 700.671875 211.613281 700.414062 210.585938 700.101562 C 209.554688 699.789062 208.542969 699.425781 207.550781 699.015625 C 206.554688 698.601562 205.585938 698.144531 204.636719 697.636719 C 203.6875 697.128906 202.765625 696.578125 201.871094 695.980469 C 200.976562 695.382812 200.113281 694.742188 199.28125 694.058594 C 198.453125 693.375 197.65625 692.65625 196.894531 691.894531 C 196.132812 691.132812 195.414062 690.335938 194.730469 689.507812 C 194.046875 688.675781 193.40625 687.8125 192.808594 686.917969 C 192.210938 686.023438 191.660156 685.101562 191.152344 684.152344 C 190.644531 683.203125 190.1875 682.234375 189.773438 681.238281 C 189.363281 680.246094 189 679.234375 188.6875 678.203125 C 188.378906 677.175781 188.117188 676.132812 187.90625 675.078125 C 187.695312 674.023438 187.539062 672.960938 187.433594 671.890625 C 187.328125 670.820312 187.273438 669.746094 187.273438 668.671875 L 187.273438 614.292969 C 185.402344 613.734375 183.5625 613.09375 181.746094 612.371094 C 179.933594 611.652344 178.15625 610.851562 176.410156 609.96875 C 174.667969 609.089844 172.96875 608.132812 171.3125 607.101562 C 169.65625 606.070312 168.046875 604.964844 166.488281 603.789062 C 164.929688 602.613281 163.425781 601.371094 161.976562 600.0625 C 160.527344 598.75 159.140625 597.378906 157.816406 595.945312 C 156.492188 594.511719 155.230469 593.023438 154.039062 591.480469 C 152.84375 589.933594 151.722656 588.335938 150.671875 586.691406 C 149.621094 585.046875 148.648438 583.355469 147.746094 581.625 C 146.847656 579.890625 146.027344 578.121094 145.285156 576.316406 C 144.542969 574.511719 143.882812 572.675781 143.304688 570.808594 C 142.726562 568.945312 142.230469 567.058594 141.820312 565.148438 C 141.410156 563.242188 141.085938 561.316406 140.847656 559.378906 C 140.609375 557.441406 140.457031 555.496094 140.390625 553.546875 C 140.328125 551.59375 140.347656 549.644531 140.457031 547.695312 C 140.566406 545.746094 140.761719 543.804688 141.042969 541.871094 C 141.324219 539.941406 141.691406 538.023438 142.144531 536.125 C 142.597656 534.226562 143.136719 532.351562 143.753906 530.5 C 144.375 528.648438 145.078125 526.828125 145.859375 525.039062 C 146.640625 523.25 147.5 521.5 148.441406 519.789062 C 149.378906 518.074219 150.390625 516.410156 151.480469 514.785156 C 152.566406 513.164062 153.722656 511.59375 154.949219 510.078125 C 156.175781 508.558594 157.46875 507.097656 158.828125 505.695312 C 160.183594 504.289062 161.601562 502.949219 163.078125 501.671875 C 164.558594 500.398438 166.085938 499.1875 167.671875 498.046875 C 169.257812 496.90625 170.890625 495.839844 172.570312 494.84375 C 174.25 493.851562 175.972656 492.933594 177.734375 492.089844 C 179.496094 491.25 181.289062 490.488281 183.121094 489.808594 C 184.949219 489.128906 186.808594 488.527344 188.691406 488.011719 C 190.574219 487.5 192.476562 487.066406 194.398438 486.722656 C 196.320312 486.375 198.253906 486.117188 200.195312 485.941406 C 202.140625 485.769531 204.089844 485.683594 206.042969 485.683594 L 243.578125 485.683594 C 321.070312 485.683594 347.105469 444.996094 348.167969 443.265625 C 348.707031 442.394531 349.371094 441.636719 350.15625 440.984375 C 350.945312 440.332031 351.8125 439.820312 352.765625 439.449219 C 353.71875 439.078125 354.703125 438.867188 355.726562 438.816406 C 356.746094 438.765625 357.75 438.875 358.734375 439.148438 C 359.222656 439.285156 359.695312 439.460938 360.152344 439.675781 C 360.613281 439.890625 361.050781 440.136719 361.472656 440.421875 C 361.890625 440.707031 362.285156 441.023438 362.652344 441.375 C 363.019531 441.722656 363.355469 442.097656 363.660156 442.5 C 363.96875 442.90625 364.238281 443.332031 364.476562 443.777344 C 364.714844 444.226562 364.914062 444.6875 365.078125 445.167969 C 365.238281 445.648438 365.363281 446.140625 365.445312 446.640625 C 365.527344 447.136719 365.570312 447.640625 365.570312 448.148438 L 365.570312 513.835938 C 366.796875 513.835938 368.023438 513.898438 369.246094 514.019531 C 370.46875 514.140625 371.683594 514.324219 372.890625 514.5625 C 374.09375 514.804688 375.285156 515.101562 376.460938 515.460938 C 377.636719 515.816406 378.792969 516.230469 379.929688 516.703125 C 381.0625 517.175781 382.171875 517.699219 383.257812 518.277344 C 384.339844 518.859375 385.394531 519.488281 386.414062 520.171875 C 387.4375 520.855469 388.421875 521.585938 389.371094 522.367188 C 390.320312 523.148438 391.230469 523.972656 392.101562 524.839844 C 392.96875 525.710938 393.792969 526.621094 394.574219 527.570312 C 395.351562 528.519531 396.085938 529.503906 396.769531 530.527344 C 397.449219 531.546875 398.082031 532.601562 398.664062 533.683594 C 399.242188 534.769531 399.765625 535.878906 400.238281 537.011719 C 400.710938 538.148438 401.125 539.304688 401.480469 540.480469 C 401.839844 541.65625 402.136719 542.847656 402.378906 544.050781 C 402.617188 545.257812 402.800781 546.46875 402.921875 547.695312 C 403.042969 548.917969 403.105469 550.140625 403.105469 551.371094 Z M 206.042969 598.292969 L 234.195312 598.292969 L 234.195312 504.453125 L 206.042969 504.453125 C 204.507812 504.453125 202.972656 504.527344 201.445312 504.679688 C 199.914062 504.828125 198.398438 505.054688 196.890625 505.351562 C 195.382812 505.652344 193.894531 506.027344 192.421875 506.472656 C 190.953125 506.917969 189.507812 507.433594 188.085938 508.023438 C 186.667969 508.613281 185.28125 509.269531 183.925781 509.992188 C 182.570312 510.714844 181.253906 511.503906 179.976562 512.359375 C 178.699219 513.214844 177.464844 514.128906 176.277344 515.101562 C 175.089844 516.078125 173.953125 517.109375 172.867188 518.195312 C 171.777344 519.28125 170.75 520.417969 169.773438 521.605469 C 168.796875 522.792969 167.882812 524.027344 167.03125 525.304688 C 166.175781 526.582031 165.386719 527.898438 164.664062 529.253906 C 163.9375 530.609375 163.28125 531.996094 162.695312 533.417969 C 162.105469 534.835938 161.589844 536.28125 161.144531 537.75 C 160.699219 539.222656 160.324219 540.710938 160.023438 542.21875 C 159.726562 543.726562 159.5 545.242188 159.347656 546.773438 C 159.199219 548.300781 159.125 549.835938 159.125 551.371094 C 159.125 552.90625 159.199219 554.441406 159.347656 555.96875 C 159.5 557.5 159.726562 559.019531 160.023438 560.523438 C 160.324219 562.03125 160.699219 563.519531 161.144531 564.992188 C 161.589844 566.460938 162.105469 567.90625 162.695312 569.328125 C 163.28125 570.746094 163.9375 572.132812 164.664062 573.488281 C 165.386719 574.84375 166.175781 576.160156 167.03125 577.4375 C 167.882812 578.714844 168.796875 579.949219 169.773438 581.136719 C 170.75 582.324219 171.777344 583.460938 172.867188 584.546875 C 173.953125 585.636719 175.089844 586.664062 176.277344 587.640625 C 177.464844 588.617188 178.699219 589.53125 179.976562 590.382812 C 181.253906 591.238281 182.570312 592.027344 183.925781 592.75 C 185.28125 593.476562 186.667969 594.132812 188.085938 594.71875 C 189.507812 595.308594 190.953125 595.824219 192.421875 596.269531 C 193.894531 596.714844 195.382812 597.089844 196.890625 597.390625 C 198.398438 597.6875 199.914062 597.914062 201.445312 598.066406 C 202.972656 598.214844 204.507812 598.292969 206.042969 598.292969 Z M 234.195312 668.671875 L 234.195312 617.058594 L 206.042969 617.058594 L 206.042969 668.671875 C 206.042969 669.59375 206.132812 670.511719 206.3125 671.417969 C 206.492188 672.324219 206.761719 673.203125 207.113281 674.058594 C 207.46875 674.910156 207.902344 675.722656 208.414062 676.492188 C 208.929688 677.257812 209.511719 677.96875 210.164062 678.625 C 210.820312 679.277344 211.53125 679.859375 212.296875 680.375 C 213.066406 680.886719 213.878906 681.320312 214.730469 681.675781 C 215.585938 682.027344 216.464844 682.296875 217.371094 682.476562 C 218.277344 682.65625 219.195312 682.746094 220.117188 682.746094 C 221.042969 682.746094 221.957031 682.65625 222.863281 682.476562 C 223.769531 682.296875 224.652344 682.027344 225.503906 681.675781 C 226.359375 681.320312 227.171875 680.886719 227.9375 680.375 C 228.707031 679.859375 229.417969 679.277344 230.070312 678.625 C 230.726562 677.96875 231.308594 677.257812 231.824219 676.492188 C 232.335938 675.722656 232.769531 674.910156 233.125 674.058594 C 233.476562 673.203125 233.742188 672.324219 233.925781 671.417969 C 234.105469 670.511719 234.195312 669.59375 234.195312 668.671875 Z M 346.800781 471.984375 C 330.277344 485.757812 300.542969 502.074219 252.960938 504.058594 L 252.960938 598.683594 C 300.542969 600.667969 330.277344 616.984375 346.800781 630.757812 Z M 384.335938 551.371094 C 384.335938 550.757812 384.304688 550.144531 384.246094 549.53125 C 384.183594 548.921875 384.09375 548.3125 383.972656 547.710938 C 383.851562 547.109375 383.703125 546.515625 383.523438 545.925781 C 383.34375 545.339844 383.136719 544.761719 382.902344 544.191406 C 382.667969 543.625 382.402344 543.070312 382.113281 542.527344 C 381.824219 541.988281 381.507812 541.460938 381.167969 540.949219 C 380.824219 540.441406 380.460938 539.945312 380.070312 539.472656 C 379.679688 538.996094 379.269531 538.542969 378.832031 538.109375 C 378.398438 537.671875 377.945312 537.261719 377.46875 536.871094 C 376.996094 536.480469 376.5 536.117188 375.992188 535.773438 C 375.480469 535.433594 374.953125 535.117188 374.410156 534.828125 C 373.871094 534.535156 373.316406 534.273438 372.746094 534.039062 C 372.179688 533.804688 371.601562 533.597656 371.015625 533.417969 C 370.425781 533.238281 369.832031 533.089844 369.230469 532.96875 C 368.625 532.847656 368.019531 532.757812 367.410156 532.695312 C 366.796875 532.636719 366.183594 532.605469 365.570312 532.605469 L 365.570312 570.140625 C 366.183594 570.136719 366.796875 570.109375 367.410156 570.046875 C 368.019531 569.984375 368.625 569.894531 369.230469 569.773438 C 369.832031 569.652344 370.425781 569.503906 371.015625 569.324219 C 371.601562 569.148438 372.179688 568.941406 372.746094 568.703125 C 373.316406 568.46875 373.871094 568.207031 374.410156 567.914062 C 374.953125 567.625 375.480469 567.308594 375.992188 566.96875 C 376.5 566.628906 376.996094 566.261719 377.46875 565.871094 C 377.945312 565.480469 378.398438 565.070312 378.832031 564.636719 C 379.269531 564.199219 379.679688 563.746094 380.070312 563.269531 C 380.460938 562.796875 380.824219 562.304688 381.167969 561.792969 C 381.507812 561.28125 381.824219 560.753906 382.113281 560.214844 C 382.402344 559.671875 382.667969 559.117188 382.902344 558.550781 C 383.136719 557.980469 383.34375 557.40625 383.523438 556.816406 C 383.703125 556.230469 383.851562 555.632812 383.972656 555.03125 C 384.09375 554.429688 384.183594 553.820312 384.246094 553.210938 C 384.304688 552.597656 384.335938 551.984375 384.335938 551.371094 Z M 459.410156 541.988281 L 431.257812 541.988281 C 430.640625 541.988281 430.03125 542.046875 429.425781 542.167969 C 428.820312 542.289062 428.234375 542.464844 427.667969 542.703125 C 427.097656 542.9375 426.554688 543.226562 426.042969 543.570312 C 425.53125 543.910156 425.058594 544.300781 424.621094 544.734375 C 424.1875 545.171875 423.796875 545.644531 423.453125 546.15625 C 423.113281 546.671875 422.824219 547.210938 422.585938 547.78125 C 422.351562 548.347656 422.171875 548.9375 422.054688 549.539062 C 421.933594 550.144531 421.875 550.753906 421.875 551.371094 C 421.875 551.988281 421.933594 552.597656 422.054688 553.203125 C 422.171875 553.804688 422.351562 554.394531 422.585938 554.960938 C 422.824219 555.53125 423.113281 556.074219 423.453125 556.585938 C 423.796875 557.097656 424.1875 557.570312 424.621094 558.007812 C 425.058594 558.441406 425.53125 558.832031 426.042969 559.171875 C 426.554688 559.515625 427.097656 559.804688 427.667969 560.039062 C 428.234375 560.277344 428.820312 560.453125 429.425781 560.574219 C 430.03125 560.695312 430.640625 560.753906 431.257812 560.753906 L 459.410156 560.753906 C 460.023438 560.753906 460.636719 560.695312 461.238281 560.574219 C 461.84375 560.453125 462.429688 560.277344 463 560.039062 C 463.570312 559.804688 464.109375 559.515625 464.621094 559.171875 C 465.132812 558.832031 465.609375 558.441406 466.042969 558.007812 C 466.480469 557.570312 466.867188 557.097656 467.210938 556.585938 C 467.554688 556.074219 467.84375 555.53125 468.078125 554.960938 C 468.3125 554.394531 468.492188 553.804688 468.613281 553.203125 C 468.734375 552.597656 468.792969 551.988281 468.792969 551.371094 C 468.792969 550.753906 468.734375 550.144531 468.613281 549.539062 C 468.492188 548.9375 468.3125 548.347656 468.078125 547.78125 C 467.84375 547.210938 467.554688 546.671875 467.210938 546.15625 C 466.867188 545.644531 466.480469 545.171875 466.042969 544.734375 C 465.609375 544.300781 465.132812 543.910156 464.621094 543.570312 C 464.109375 543.226562 463.570312 542.9375 463 542.703125 C 462.429688 542.464844 461.84375 542.289062 461.238281 542.167969 C 460.636719 542.046875 460.023438 541.988281 459.410156 541.988281 Z M 462.378906 589.394531 L 434.226562 580.007812 C 433.640625 579.8125 433.042969 579.675781 432.429688 579.597656 C 431.820312 579.515625 431.207031 579.5 430.589844 579.542969 C 429.976562 579.582031 429.371094 579.6875 428.773438 579.847656 C 428.179688 580.007812 427.605469 580.226562 427.054688 580.503906 C 426.5 580.777344 425.980469 581.105469 425.492188 581.480469 C 425.003906 581.859375 424.558594 582.28125 424.152344 582.746094 C 423.75 583.210938 423.394531 583.714844 423.089844 584.25 C 422.78125 584.785156 422.53125 585.34375 422.335938 585.929688 C 422.140625 586.515625 422.003906 587.113281 421.929688 587.726562 C 421.851562 588.339844 421.835938 588.953125 421.878906 589.566406 C 421.921875 590.183594 422.027344 590.789062 422.1875 591.382812 C 422.351562 591.976562 422.574219 592.550781 422.847656 593.101562 C 423.125 593.652344 423.453125 594.171875 423.832031 594.660156 C 424.210938 595.148438 424.632812 595.59375 425.101562 595.996094 C 425.566406 596.398438 426.066406 596.753906 426.605469 597.058594 C 427.140625 597.363281 427.703125 597.613281 428.289062 597.804688 L 456.441406 607.1875 C 457.023438 607.382812 457.621094 607.515625 458.230469 607.59375 C 458.839844 607.667969 459.453125 607.683594 460.066406 607.640625 C 460.679688 607.59375 461.28125 607.492188 461.875 607.328125 C 462.46875 607.164062 463.039062 606.945312 463.589844 606.671875 C 464.140625 606.394531 464.65625 606.066406 465.144531 605.691406 C 465.628906 605.3125 466.074219 604.890625 466.476562 604.425781 C 466.878906 603.964844 467.230469 603.464844 467.535156 602.929688 C 467.839844 602.394531 468.089844 601.835938 468.285156 601.253906 C 468.480469 600.667969 468.617188 600.074219 468.691406 599.460938 C 468.769531 598.851562 468.789062 598.242188 468.746094 597.628906 C 468.703125 597.015625 468.597656 596.410156 468.4375 595.816406 C 468.277344 595.222656 468.058594 594.652344 467.785156 594.101562 C 467.507812 593.550781 467.183594 593.03125 466.808594 592.546875 C 466.433594 592.058594 466.011719 591.613281 465.546875 591.210938 C 465.085938 590.804688 464.585938 590.453125 464.050781 590.144531 C 463.519531 589.839844 462.960938 589.589844 462.378906 589.394531 Z M 431.257812 523.21875 C 432.273438 523.21875 433.261719 523.058594 434.226562 522.734375 L 462.378906 513.351562 C 462.964844 513.15625 463.523438 512.90625 464.0625 512.601562 C 464.597656 512.296875 465.097656 511.945312 465.566406 511.539062 C 466.03125 511.136719 466.457031 510.691406 466.835938 510.203125 C 467.214844 509.71875 467.539062 509.199219 467.816406 508.648438 C 468.09375 508.097656 468.3125 507.523438 468.476562 506.925781 C 468.640625 506.332031 468.742188 505.726562 468.789062 505.113281 C 468.832031 504.496094 468.816406 503.882812 468.738281 503.269531 C 468.660156 502.660156 468.523438 502.058594 468.328125 501.476562 C 468.132812 500.890625 467.882812 500.328125 467.578125 499.792969 C 467.273438 499.257812 466.917969 498.757812 466.511719 498.292969 C 466.105469 497.824219 465.660156 497.40625 465.171875 497.027344 C 464.683594 496.648438 464.164062 496.324219 463.613281 496.046875 C 463.0625 495.773438 462.488281 495.554688 461.890625 495.390625 C 461.296875 495.230469 460.691406 495.128906 460.074219 495.085938 C 459.460938 495.042969 458.847656 495.0625 458.234375 495.140625 C 457.621094 495.21875 457.023438 495.355469 456.441406 495.554688 L 428.289062 504.9375 C 427.765625 505.113281 427.257812 505.332031 426.773438 505.597656 C 426.289062 505.859375 425.832031 506.164062 425.398438 506.511719 C 424.96875 506.855469 424.570312 507.234375 424.207031 507.652344 C 423.839844 508.066406 423.515625 508.511719 423.230469 508.984375 C 422.945312 509.457031 422.703125 509.949219 422.503906 510.464844 C 422.304688 510.980469 422.152344 511.511719 422.046875 512.050781 C 421.941406 512.59375 421.886719 513.140625 421.878906 513.695312 C 421.871094 514.246094 421.910156 514.796875 422 515.339844 C 422.085938 515.886719 422.222656 516.417969 422.40625 516.941406 C 422.589844 517.460938 422.816406 517.964844 423.085938 518.445312 C 423.359375 518.925781 423.667969 519.378906 424.019531 519.804688 C 424.371094 520.234375 424.757812 520.625 425.179688 520.984375 C 425.601562 521.339844 426.050781 521.660156 426.527344 521.9375 C 427.003906 522.214844 427.5 522.453125 428.019531 522.640625 C 428.539062 522.832031 429.070312 522.976562 429.613281 523.074219 C 430.15625 523.171875 430.703125 523.21875 431.257812 523.21875 Z M 431.257812 523.21875 " fill-opacity="1" fill-rule="nonzero"/></g></svg>